<?xml version="1.0" standalone="no"?>
<!DOCTYPE svg PUBLIC "-//W3C//DTD SVG 20010904//EN"
 "http://www.w3.org/TR/2001/REC-SVG-20010904/DTD/svg10.dtd">
<svg version="1.0" xmlns="http://www.w3.org/2000/svg"
 width="512.000000pt" height="512.000000pt" viewBox="0 0 512.000000 512.000000"
 preserveAspectRatio="xMidYMid meet">
<metadata>
Created by potrace 1.11, written by Peter Selinger 2001-2013
</metadata>
<g transform="translate(0.000000,512.000000) scale(0.100000,-0.100000)"
fill="#000000" stroke="none">
<path d="M1595 4846 c-14 -21 -16 -65 -13 -343 3 -298 4 -320 24 -357 27 -53
73 -76 151 -76 74 0 109 12 118 40 11 35 -11 50 -77 50 -111 0 -118 16 -118
261 l0 179 88 0 c90 0 112 8 112 41 0 33 -39 49 -122 49 l-78 0 0 78 c0 47 -5
83 -12 90 -20 20 -56 14 -73 -12z"/>
<path d="M539 4685 c-25 -8 -62 -31 -82 -50 l-37 -36 0 30 c0 34 -22 61 -50
61 -10 0 -26 -7 -34 -16 -14 -13 -16 -54 -16 -294 0 -240 2 -281 16 -294 20
-20 48 -20 68 0 13 13 16 45 16 197 0 156 3 188 19 223 43 94 158 129 248 74
55 -33 63 -67 63 -277 0 -204 7 -233 54 -233 44 0 46 12 46 240 0 216 0 216
-27 271 -50 96 -170 141 -284 104z"/>
<path d="M1132 4681 c-76 -26 -122 -67 -162 -146 -32 -62 -35 -75 -35 -154 0
-72 4 -95 26 -142 31 -66 83 -119 147 -150 70 -34 187 -33 262 3 98 46 135
102 87 132 -13 8 -23 7 -45 -6 -69 -45 -129 -68 -172 -68 -87 1 -166 56 -195
139 -8 24 -15 45 -15 47 0 2 101 4 225 4 l225 0 15 24 c14 21 15 34 6 82 -23
121 -94 209 -192 238 -68 21 -111 20 -177 -3z m185 -97 c39 -29 62 -63 78
-117 l14 -47 -190 0 -189 0 6 28 c11 49 59 116 99 140 50 29 140 27 182 -4z"/>
<path d="M2145 4695 c-5 -2 -27 -6 -48 -10 -41 -7 -100 -53 -123 -96 -18 -36
-18 -102 1 -139 22 -42 62 -66 164 -100 154 -50 182 -75 160 -139 -25 -71
-143 -80 -263 -20 -52 26 -71 31 -84 23 -92 -58 133 -171 283 -143 106 20 173
101 162 196 -8 77 -60 116 -216 168 -125 41 -157 83 -108 141 36 41 112 45
202 9 49 -20 73 -25 84 -18 20 13 26 50 11 68 -21 25 -192 71 -225 60z"/>
<path d="M2676 4689 c-54 -13 -98 -42 -145 -95 -101 -115 -101 -313 0 -428 88
-100 239 -131 359 -74 98 46 135 102 88 132 -13 8 -23 8 -35 -1 -102 -71 -179
-89 -258 -59 -54 21 -109 82 -123 137 l-10 39 219 0 c206 0 220 1 239 20 23
23 25 47 6 115 -19 72 -39 106 -89 152 -68 63 -155 84 -251 62z m154 -99 c42
-21 83 -81 95 -137 l7 -33 -191 0 -190 0 13 44 c8 25 24 58 36 75 47 68 152
91 230 51z"/>
<path d="M3835 4687 c-90 -30 -141 -74 -187 -160 -20 -36 -23 -57 -23 -147 0
-90 3 -111 23 -147 51 -97 134 -156 238 -169 108 -13 269 58 269 121 0 35 -27
55 -52 38 -68 -48 -111 -67 -158 -71 -94 -8 -171 34 -206 113 -36 79 -46 75
199 75 206 0 220 1 237 20 37 41 -6 190 -76 259 -65 66 -181 95 -264 68z m174
-106 c19 -14 44 -47 57 -75 42 -90 50 -86 -161 -86 -182 0 -185 0 -185 21 0
39 52 119 94 145 54 33 145 31 195 -5z"/>
<path d="M4510 4691 c-44 -14 -84 -38 -110 -66 l-25 -27 -5 38 c-4 31 -10 41
-34 49 -24 8 -31 6 -47 -14 -18 -21 -19 -43 -19 -291 0 -248 1 -270 19 -291
16 -20 23 -22 47 -14 l29 10 5 200 c4 164 8 206 22 232 53 95 192 121 264 49
46 -46 54 -89 54 -288 0 -187 5 -208 50 -208 43 0 50 33 50 222 0 97 -5 200
-11 227 -14 66 -57 123 -113 150 -49 24 -136 35 -176 22z"/>
<path d="M3250 4675 c-7 -8 -10 -25 -6 -40 6 -25 7 -25 126 -25 66 0 120 -3
120 -6 0 -12 -164 -374 -170 -374 -3 0 -41 80 -84 178 -44 97 -84 183 -89 190
-16 20 -56 14 -68 -11 -9 -19 6 -58 97 -257 58 -129 112 -241 119 -249 8 -8
23 -11 37 -8 20 5 44 52 151 291 107 239 126 289 117 306 -10 19 -20 20 -174
20 -133 0 -166 -3 -176 -15z"/>
<path d="M780 3825 c0 -25 5 -45 10 -45 6 0 10 8 10 18 1 13 4 11 14 -8 l14
-25 14 30 13 29 6 -30 c5 -22 7 -17 8 24 0 28 -1 52 -4 52 -2 0 -13 -16 -23
-35 l-18 -36 -13 36 c-17 48 -31 44 -31 -10z"/>
<path d="M954 3835 c-7 -19 -14 -42 -14 -52 1 -17 1 -17 11 0 5 9 16 17 24 17
8 0 19 -8 25 -17 9 -15 10 -14 6 9 -8 38 -24 78 -31 78 -3 0 -13 -16 -21 -35z"/>
<path d="M1082 3820 c1 -39 2 -45 5 -20 l5 35 29 -35 28 -35 -1 55 c-1 39 -2
45 -5 20 l-5 -35 -29 35 -28 35 1 -55z"/>
<path d="M1234 3835 c-7 -19 -14 -42 -14 -52 1 -17 1 -17 11 0 5 9 16 17 24
17 8 0 19 -8 24 -17 9 -16 10 -16 11 -2 0 19 -28 89 -36 89 -3 0 -12 -16 -20
-35z"/>
<path d="M1362 3858 c-18 -18 -15 -66 6 -77 9 -5 30 -8 45 -8 24 2 27 6 27 38
0 40 -14 59 -45 59 -12 0 -26 -5 -33 -12z m58 -19 c0 -5 -7 -9 -15 -9 -8 0
-15 -4 -15 -10 0 -5 7 -10 16 -10 8 0 12 -4 9 -10 -11 -18 -43 -11 -51 12 -4
15 -1 25 11 34 17 13 45 9 45 -7z"/>
<path d="M1513 3820 c0 -30 2 -43 4 -27 2 15 2 39 0 55 -2 15 -4 2 -4 -28z"/>
<path d="M1590 3826 c0 -25 5 -48 10 -51 6 -4 10 7 10 27 l0 32 30 -34 29 -35
-1 55 c-1 49 -1 51 -7 18 l-6 -38 -24 35 c-13 19 -27 35 -32 35 -5 0 -9 -20
-9 -44z"/>
<path d="M1752 3858 c-18 -18 -15 -66 6 -77 9 -5 30 -8 45 -8 26 2 28 5 26 37
-2 19 -7 41 -12 48 -12 15 -49 16 -65 0z m58 -19 c0 -5 -7 -9 -15 -9 -21 0
-19 -18 3 -23 16 -4 16 -4 0 -12 -41 -17 -69 32 -31 53 18 11 43 5 43 -9z"/>
<path d="M1994 3845 c9 -13 16 -33 16 -44 0 -11 5 -23 10 -26 6 -3 10 4 10 17
0 13 7 34 16 46 20 29 10 43 -11 16 -14 -18 -16 -18 -26 -1 -5 9 -15 17 -21
17 -6 0 -3 -11 6 -25z"/>
<path d="M2120 3851 c-15 -29 -12 -46 10 -66 17 -15 24 -16 45 -7 27 13 35 58
13 80 -18 18 -56 14 -68 -7z m70 -24 c0 -22 -17 -39 -36 -35 -22 4 -32 47 -13
59 16 9 49 -7 49 -24z"/>
<path d="M2271 3834 c-1 -48 20 -74 47 -57 11 6 17 25 18 54 l2 44 -7 -40 c-5
-31 -10 -40 -26 -40 -16 0 -21 9 -26 40 l-6 40 -2 -41z"/>
<path d="M2410 3826 c0 -25 5 -46 10 -46 6 0 10 7 10 15 0 24 38 18 43 -7 3
-13 4 0 3 27 -1 49 -2 50 -33 53 -33 3 -33 3 -33 -42z m60 14 c0 -5 -9 -10
-20 -10 -11 0 -20 5 -20 10 0 6 9 10 20 10 11 0 20 -4 20 -10z"/>
<path d="M2653 3820 c0 -30 2 -43 4 -27 2 15 2 39 0 55 -2 15 -4 2 -4 -28z"/>
<path d="M2742 3858 c-26 -26 -3 -88 32 -88 20 0 52 28 42 37 -5 4 -11 2 -13
-4 -6 -16 -35 -17 -51 -1 -16 16 -15 23 4 43 15 14 18 14 40 0 13 -8 24 -12
24 -7 0 15 -24 32 -45 32 -12 0 -26 -5 -33 -12z"/>
<path d="M2870 3860 c0 -5 6 -10 14 -10 10 0 16 -14 19 -42 l4 -43 1 43 c1 30
6 42 17 42 8 0 15 5 15 10 0 6 -16 10 -35 10 -19 0 -35 -4 -35 -10z"/>
<path d="M3112 3858 c-22 -22 -14 -67 13 -80 21 -9 28 -8 45 7 36 32 20 85
-25 85 -12 0 -26 -5 -33 -12z m56 -37 c-2 -18 -10 -27 -25 -29 -29 -4 -43 36
-18 54 25 19 47 6 43 -25z"/>
<path d="M3261 3818 c1 -29 4 -43 6 -31 3 13 13 23 26 25 16 2 22 10 22 28 0
20 -6 26 -27 28 -28 3 -28 3 -27 -50z m49 22 c0 -5 -9 -10 -20 -10 -11 0 -20
5 -20 10 0 6 9 10 20 10 11 0 20 -4 20 -10z"/>
<path d="M3390 3820 c0 -49 1 -50 30 -50 17 0 30 5 30 10 0 6 -11 10 -25 10
-34 0 -32 28 3 33 l27 4 -27 2 c-35 1 -37 21 -3 21 14 0 25 5 25 10 0 6 -13
10 -30 10 -29 0 -30 -1 -30 -50z"/>
<path d="M3520 3826 c0 -25 5 -48 10 -51 6 -3 10 3 10 14 0 30 37 28 43 -1 3
-13 4 0 3 27 -1 49 -2 50 -33 53 -33 3 -33 3 -33 -42z m60 14 c0 -5 -9 -10
-20 -10 -11 0 -20 5 -20 10 0 6 9 10 20 10 11 0 20 -4 20 -10z"/>
<path d="M3667 3823 c-9 -25 -15 -48 -12 -51 2 -3 7 3 11 12 3 9 14 16 24 16
10 0 21 -7 24 -16 4 -9 9 -14 12 -11 7 7 -26 97 -35 97 -4 0 -14 -21 -24 -47z"/>
<path d="M3780 3860 c0 -5 5 -10 10 -10 6 0 10 -15 10 -34 0 -19 5 -38 10 -41
6 -4 10 9 10 31 0 23 6 42 18 50 15 12 13 13 -20 14 -21 0 -38 -4 -38 -10z"/>
<path d="M3913 3820 c0 -30 2 -43 4 -27 2 15 2 39 0 55 -2 15 -4 2 -4 -28z"/>
<path d="M4002 3858 c-25 -25 -4 -88 29 -88 26 0 49 23 49 48 0 33 -16 52 -45
52 -12 0 -26 -5 -33 -12z m68 -28 c0 -40 -41 -55 -60 -21 -14 28 13 55 41 41
10 -6 19 -15 19 -20z"/>
<path d="M4152 3820 c1 -49 1 -51 7 -18 l6 38 24 -35 c13 -19 27 -32 32 -29
12 7 11 94 -1 94 -5 0 -10 -14 -10 -32 l0 -32 -30 34 -29 35 1 -55z"/>
<path d="M4296 3855 c-9 -24 -9 -25 24 -36 17 -6 30 -15 30 -20 0 -14 -38 -11
-43 4 -2 6 -8 9 -12 5 -13 -12 17 -39 39 -36 34 5 34 46 0 58 -20 8 -24 14
-16 22 8 8 16 7 28 -3 15 -12 17 -12 12 1 -7 21 -54 25 -62 5z"/>
<path d="M2367 2736 c-237 -42 -438 -145 -601 -309 -144 -145 -240 -313 -293
-516 -34 -129 -42 -345 -19 -477 76 -437 377 -765 813 -886 68 -19 103 -22
278 -22 185 0 207 2 297 26 191 52 365 153 503 293 430 435 431 1146 2 1579
-142 144 -311 240 -516 293 -120 31 -343 40 -464 19z m737 -517 c19 -15 26
-29 26 -56 0 -26 -78 -210 -266 -629 -146 -326 -274 -600 -283 -608 -26 -23
-80 -20 -108 6 -39 36 -30 72 71 296 105 230 365 810 373 830 4 9 -49 12 -245
12 l-250 0 -31 26 c-48 40 -41 102 14 132 13 8 129 11 346 12 315 0 327 -1
353 -21z"/>
</g>
</svg>
